<svg width="252" height="68" viewBox="0 0 252 68" fill="none" xmlns="http://www.w3.org/2000/svg">
<path d="M76.1284 41.0973C77.2672 41.0974 78.5288 41.7214 78.5288 44.3717V51.8864C79.9755 49.8283 82.0383 48.5494 84.9009 48.5494C89.7947 48.5496 93.4263 52.3544 93.4263 58.2164C93.4262 64.0783 89.8254 67.976 84.7778 67.9762C81.6998 67.9762 79.4835 66.4792 78.4985 64.7018V65.8248C78.4984 67.1966 77.8208 67.6334 76.8667 67.6334H76.436C75.4511 67.6334 74.774 67.1966 74.7739 65.8248V41.5338C74.7787 41.5305 75.3926 41.0973 76.1284 41.0973ZM242.771 48.5494C248.157 48.5496 251.512 52.3233 251.512 57.8424V58.1539C251.512 58.9646 251.235 59.2769 250.374 59.277H236.922C237.2 62.7067 239.693 64.983 243.14 64.983C246.31 64.983 247.911 63.5486 248.865 61.9274C248.926 61.865 250.835 62.2075 250.835 63.7975C250.835 65.3877 248.034 67.9761 243.079 67.9762C237.323 67.9762 233.444 64.1099 233.444 58.3414C233.444 52.7287 237.385 48.5494 242.771 48.5494ZM172.808 43.4674C173.916 43.4675 174.286 43.9351 174.286 44.7457V57.3434H180.261C180.654 52.1882 184.516 48.5494 189.707 48.5494C195.185 48.5496 197.494 51.9175 197.494 53.6637C197.494 55.2228 195.37 55.5344 195.247 55.3473C194.416 53.3207 192.846 51.7303 189.768 51.7301C186.351 51.7301 183.796 54.4434 183.796 58.2164C183.796 61.9894 186.321 64.7643 189.768 64.7643C192.846 64.7641 194.416 63.205 195.247 61.1471C195.372 60.9606 197.493 61.2106 197.494 62.8619C197.494 64.5145 195.062 67.9135 189.707 67.9137C184.649 67.9137 180.691 64.2981 180.266 59.0895H174.286V66.6666C174.286 67.2279 174.008 67.5397 173.485 67.5397H173.208C172.746 67.5394 172.408 67.103 172.408 66.6666V59.0895H161.05C160.188 59.0895 159.696 58.6215 159.696 58.0914V57.4996C159.696 56.9696 160.003 56.5324 160.496 55.8776L171.053 44.6207C171.7 43.7789 171.946 43.4674 172.808 43.4674ZM118.235 48.5182C123.406 48.5182 126.176 51.2003 126.176 55.8776V67.1969C126.175 67.384 125.498 67.6334 124.822 67.6334C123.498 67.6333 122.544 66.9155 122.513 64.6705C121.097 66.6661 118.728 67.8512 115.958 67.8512C112.048 67.8512 109.74 65.731 109.74 62.5817L109.751 62.2194C109.994 58.2275 113.998 56.4964 121.959 56.3453H122.452V55.9713C122.452 53.1651 120.852 51.6365 117.958 51.6364C115.188 51.6364 113.556 53.102 112.725 54.7858C112.725 54.8169 110.417 54.7857 110.417 52.9459C110.418 51.1062 113.064 48.5183 118.235 48.5182ZM208.297 48.5182C213.468 48.5183 216.239 51.2003 216.239 55.8776V67.1969C216.238 67.3839 215.561 67.6334 214.884 67.6334C213.561 67.6334 212.606 66.9156 212.576 64.6705C211.16 66.6662 208.789 67.8512 206.019 67.8512C202.11 67.8511 199.802 65.7309 199.802 62.5817L199.814 62.2194C200.056 58.2275 204.061 56.4964 212.022 56.3453H212.514V55.9713C212.514 53.1649 210.913 51.6364 208.02 51.6364C205.25 51.6364 203.619 53.1021 202.788 54.7858C202.788 54.8169 200.479 54.7857 200.479 52.9459C200.479 51.1062 203.127 48.5182 208.297 48.5182ZM105.277 48.5494C107.185 48.5495 108.262 49.4854 108.262 51.0133C108.262 52.5405 107.217 53.04 107.124 52.9781C106.569 52.5104 105.831 52.1666 104.815 52.1666C101.86 52.1667 100.691 55.098 100.691 59.3385V65.8248C100.691 67.1966 99.9828 67.6333 99.0288 67.6334H98.5972C97.6125 67.6333 96.9351 67.1966 96.9351 65.8248V49.236C96.9351 49.236 97.5509 48.7995 98.2896 48.7994C99.3976 48.7994 100.599 49.4233 100.629 52.0114L100.818 51.6276C101.651 49.6185 103.113 48.5494 105.277 48.5494ZM229.012 48.5494C230.92 48.5495 231.998 49.4854 231.998 51.0133C231.998 52.54 230.953 53.0396 230.859 52.9781C230.305 52.5104 229.566 52.1666 228.55 52.1666C225.596 52.1667 224.426 55.098 224.426 59.3385V65.8248C224.426 67.1965 223.718 67.6333 222.764 67.6334H222.333C221.348 67.6333 220.67 67.1966 220.67 65.8248V49.236C220.67 49.236 221.286 48.7995 222.025 48.7994C223.133 48.7994 224.334 49.4233 224.365 52.0114L224.553 51.6276C225.387 49.6185 226.848 48.5494 229.012 48.5494ZM132.794 48.7994C133.779 48.7996 134.457 49.2363 134.457 50.6393V65.7936C134.457 67.1654 133.779 67.602 132.794 67.6022H132.424C131.44 67.6021 130.732 67.1654 130.732 65.7936V50.6393C130.732 49.2674 131.44 48.7995 132.424 48.7994H132.794ZM149.107 48.5182C153.909 48.5182 156.156 51.8553 156.156 56.4391V65.7936C156.156 67.1654 155.448 67.6022 154.494 67.6022H154.063C153.078 67.6022 152.401 67.1654 152.401 65.7936V56.9069C152.401 53.7887 150.862 51.8864 148.184 51.8864C145.783 51.8864 143.967 53.1962 143.075 55.0983V65.7936C143.075 67.1653 142.367 67.6021 141.413 67.6022H140.981C139.996 67.602 139.319 67.1652 139.319 65.7936V49.2047C139.319 49.2047 139.935 48.7683 140.673 48.7682C141.781 48.7682 142.921 49.3293 143.013 51.7614L143.289 51.4479C144.558 49.752 146.481 48.5183 149.107 48.5182ZM121.436 58.6842C116.142 58.9025 113.403 59.8999 113.403 62.3942C113.403 64.0468 114.696 65.0758 116.85 65.0758C120.113 65.0758 122.451 63.0183 122.452 60.0875V58.6842H121.436ZM211.499 58.6842C206.205 58.9025 203.465 59.8999 203.464 62.3942C203.464 64.0467 204.757 65.0757 206.912 65.0758C210.174 65.0758 212.514 63.0184 212.514 60.0875V58.6842H211.499ZM84.1929 51.6989C81.3919 51.6989 79.4527 53.1961 78.4985 55.5348V59.651C78.6219 62.6442 81.1454 64.8267 84.1001 64.8268C87.5166 64.8268 89.7943 62.1765 89.7944 58.2789V58.2477C89.7944 54.4124 87.4554 51.699 84.1929 51.6989ZM161.358 57.3746H172.469V45.3698L161.358 57.3746ZM242.709 51.4186C239.693 51.4186 237.415 53.6013 236.954 56.6881H247.849C247.664 53.5079 245.726 51.4188 242.709 51.4186ZM132.702 40.7858C134.148 40.7858 134.887 41.5653 134.887 42.9371C134.887 44.3091 134.087 45.0572 132.64 45.0573C131.193 45.0573 130.393 44.278 130.393 42.9371L130.434 42.6871C130.531 41.471 131.345 40.7858 132.702 40.7858Z" fill="#012169"/>
<path d="M112.931 30.1068C112.062 31.8421 110.168 32.487 108.457 32.8673C105.151 33.513 101.819 33.3639 98.5025 33.1167C91.9414 32.5596 85.4847 31.3121 79.0647 29.9158C75.85 29.2052 72.6602 28.4432 69.4643 27.5892C64.7998 25.8668 59.4367 25.5964 55.098 28.2047C54.256 28.7039 52.6749 29.6422 51.8171 30.1509C48.3091 32.3661 43.4999 32.198 40.1396 29.7407C38.7922 28.7872 37.6723 27.4803 36.8983 26.0269L32.6597 18.3964C32.2536 17.5682 31.391 17.0211 30.4595 17.0564C29.5562 17.0738 28.7631 17.5878 28.3767 18.4073C28.1908 18.825 27.9483 19.3365 27.6124 19.702C26.3403 21.2005 23.9313 21.352 22.4594 20.0285C21.6514 19.381 21.3694 18.3139 21.0862 17.3886L20.4304 15.3068L17.8091 6.97866L17.4828 5.93719C16.9666 4.06189 15.1314 2.77504 13.1782 2.90073C11.5843 2.96062 10.1464 3.96288 9.51878 5.4132C6.96933 11.4365 4.92268 17.7169 3.53767 24.1027C1.38484 34.0851 0.213135 49.3761 12.3343 53.0385L11.8137 54.7893C-1.52773 50.9959 -0.984666 34.6616 1.18108 23.6263C2.44315 17.0957 4.37425 10.7391 6.81758 4.5683C7.1434 3.73963 7.60273 2.96717 8.2027 2.30475C11.8335 -1.74958 18.7633 -0.213589 20.3245 5.02476C21.0476 7.24828 23.3325 14.2755 24.0343 16.442L24.3644 17.4544C24.4051 17.5651 24.4527 17.6294 24.5132 17.6818C24.6896 17.8444 25.0785 17.8472 25.241 17.6345C25.3711 17.472 25.412 17.2576 25.5376 17.0334C27.3936 13.0618 33.2067 12.9507 35.2166 16.8514C35.9992 18.1956 39.4359 25.222 40.3794 26.2777C42.3661 28.7134 45.8433 29.7434 48.8398 28.7895C49.9601 28.4909 51.4562 27.4918 52.4862 26.946C52.7808 26.7752 53.6203 26.3096 53.9101 26.1428C56.1201 24.9025 58.6503 24.1816 61.1702 24.0815C64.1527 23.9055 67.6558 24.6727 70.0488 25.6373C79.3954 28.3175 88.9471 30.6732 98.6278 31.7433C100.238 31.9073 101.852 32.0206 103.46 32.042C105.812 32.0424 108.259 31.979 110.385 30.9798L112.931 30.1068Z" fill="url(#paint0_radial_1_699)"/>
<path d="M110.385 30.9799C111.998 30.236 112.485 28.7044 111.857 27.0644C110.484 24.2597 105.012 23.2003 102.102 22.7592C89.2263 21.1122 76.0171 24.6814 64.8549 31.1029C56.3924 36.0274 48.2694 41.5635 39.912 46.6931C31.5756 51.615 21.875 57.6115 11.8137 54.7894L12.3343 53.0386C23.8758 56.5865 37.8566 46.0664 47.5291 40.3537C55.9094 35.2694 64.041 29.5067 73.1919 25.8356C83.6337 21.7201 96.1802 19.4385 107.15 22.6375C109.17 23.3303 111.335 24.1642 112.626 25.9966C113.338 27.2164 113.544 28.7427 112.931 30.1069L110.385 30.9799Z" fill="url(#paint1_linear_1_699)"/>
<defs>
<radialGradient id="paint0_radial_1_699" cx="0" cy="0" r="1" gradientTransform="matrix(-2.0906 56.8237 -117.124 -4.34896 12.9952 4.85568)" gradientUnits="userSpaceOnUse">
<stop offset="0.00833321" stop-color="#2C84C2"/>
<stop offset="0.456986" stop-color="#2C84C2"/>
<stop offset="0.878605" stop-color="#56B898"/>
</radialGradient>
<linearGradient id="paint1_linear_1_699" x1="13.1916" y1="55.514" x2="110.666" y2="55.514" gradientUnits="userSpaceOnUse">
<stop stop-color="#56B898"/>
<stop offset="0.0001" stop-color="#56B898"/>
<stop offset="1" stop-color="#56B898"/>
</linearGradient>
</defs>
</svg>
